<?xml version="1.0" encoding="UTF-8" standalone="no"?>
<svg
   xmlns:dc="http://purl.org/dc/elements/1.1/"
   xmlns:cc="http://creativecommons.org/ns#"
   xmlns:rdf="http://www.w3.org/1999/02/22-rdf-syntax-ns#"
   xmlns:svg="http://www.w3.org/2000/svg"
   xmlns="http://www.w3.org/2000/svg"
   xmlns:sodipodi="http://sodipodi.sourceforge.net/DTD/sodipodi-0.dtd"
   xmlns:inkscape="http://www.inkscape.org/namespaces/inkscape"
   height="144.407"
   id="svg1609"
   inkscape:version="0.47 r22583"
   sodipodi:docname="warning.svg"
   sodipodi:version="0.32"
   width="156.262"
   version="1.1">
  <metadata
     id="metadata2966">
    <rdf:RDF>
      <cc:Work
         rdf:about="">
        <dc:title>advertising</dc:title>
        <dc:description />
        <dc:subject>
          <rdf:Bag>
            <rdf:li />
            <rdf:li>caution</rdf:li>
            <rdf:li>security</rdf:li>
            <rdf:li>warning</rdf:li>
            <rdf:li>signs_and_symbols</rdf:li>
            <rdf:li>sign</rdf:li>
          </rdf:Bag>
        </dc:subject>
        <dc:publisher>
          <cc:Agent
             rdf:about="http://www.openclipart.org">
            <dc:title>yves GUILLOU</dc:title>
          </cc:Agent>
        </dc:publisher>
        <dc:creator>
          <cc:Agent>
            <dc:title>yves GUILLOU</dc:title>
          </cc:Agent>
        </dc:creator>
        <dc:rights>
          <cc:Agent>
            <dc:title>yves GUILLOU</dc:title>
          </cc:Agent>
        </dc:rights>
        <dc:date />
        <dc:format>image/svg+xml</dc:format>
        <dc:type
           rdf:resource="http://purl.org/dc/dcmitype/StillImage" />
        <cc:license
           rdf:resource="http://web.resource.org/cc/PublicDomain" />
        <dc:language>en</dc:language>
      </cc:Work>
      <cc:License
         rdf:about="http://web.resource.org/cc/PublicDomain">
        <cc:permits
           rdf:resource="http://web.resource.org/cc/Reproduction" />
        <cc:permits
           rdf:resource="http://web.resource.org/cc/Distribution" />
        <cc:permits
           rdf:resource="http://web.resource.org/cc/DerivativeWorks" />
      </cc:License>
    </rdf:RDF>
  </metadata>
  <sodipodi:namedview
     bordercolor="#666666"
     borderopacity="1.0"
     id="base"
     inkscape:current-layer="svg1609"
     inkscape:cx="36.241811"
     inkscape:cy="59.396977"
     inkscape:pageopacity="0.0"
     inkscape:pageshadow="2"
     inkscape:window-height="929"
     inkscape:window-width="1291"
     inkscape:window-x="140"
     inkscape:window-y="75"
     inkscape:zoom="4.9119411"
     pagecolor="#ffffff"
     showgrid="false"
     inkscape:window-maximized="0" />
  <defs
     id="defs1610">
    <inkscape:perspective
       sodipodi:type="inkscape:persp3d"
       inkscape:vp_x="0 : 72.203499 : 1"
       inkscape:vp_y="0 : 1000 : 0"
       inkscape:vp_z="156.26199 : 72.203499 : 1"
       inkscape:persp3d-origin="78.130997 : 48.135666 : 1"
       id="perspective2980" />
    <marker
       id="ArrowEnd"
       markerHeight="3"
       markerUnits="strokeWidth"
       markerWidth="4"
       orient="auto"
       refX="0"
       refY="5"
       viewBox="0 0 10 10">
      <path
         d="M 0 0 L 10 5 L 0 10 z"
         id="path1612" />
    </marker>
    <marker
       id="ArrowStart"
       markerHeight="3"
       markerUnits="strokeWidth"
       markerWidth="4"
       orient="auto"
       refX="10"
       refY="5"
       viewBox="0 0 10 10">
      <path
         d="M 10 0 L 0 5 L 10 10 z"
         id="path1614" />
    </marker>
  </defs>
  <path
     style="fill:#ffffff;stroke:#000000;stroke-width:2"
     sodipodi:nodetypes="ccccccccccc"
     id="path1616"
     d="m 12.473,121.082 c -0.913967,1.76129 -1.9912,3.408 -1.9913,5.341 l 0.009,0.80788 c 0,4.172 3.265872,6.69412 7.020572,6.69412 l 121.319698,0 c 3.755,0 6.98886,-3.12652 6.98886,-7.29852 L 145.78,125.815 c 0,-1.933 -0.95029,-3.61152 -1.991,-5.341 L 83.7056,12.6938 C 81.051,9.74423 76.7473,9.74423 74.0923,12.6942 L 12.473,121.082 z" />
  <path
     style="fill:#b3b3b3;stroke:#000000;stroke-width:4.85160017000000021;stroke-linecap:round;stroke-linejoin:round"
     id="path1617"
     d="m 78.703,16.2915 -63.4233,111.8365 61.187,0 2.8521,0 60.5072,0 -60.3105,-111.8365 -0.8125,0 z" />
  <g
     id="g1618">
    <path
       d="M 84.366054,45.157900 C 85.289904,46.139400 85.469800,46.370250 85.931700,48.160100 C 86.393600,49.949950 87.405817,53.469087 86.291592,57.462546 C 85.829592,64.390946 86.129850,70.967972 85.856575,77.979383 C 85.583663,84.981490 87.317400,93.426000 79.234100,95.042600 C 77.155600,95.273600 75.077100,93.887900 74.268800,91.924800 C 72.883100,77.837000 71.497500,64.442000 70.111700,50.700600 C 71.266400,47.120900 74.153200,43.656700 77.617500,43.194800 C 81.081800,42.732900 83.442204,44.176400 84.366054,45.157900 z "
       id="path1619"
       sodipodi:nodetypes="czczccczz"
       style="stroke:none; fill:#000000" />
    <path
       d="M 83.1603 103.357C 86.3936 105.32 86.9709 108.9 86.9709 112.479C 85.5852 115.944 84.0841 119.985 79.5806 119.985C 76.8092 119.87 74.1533 119.292 72.3057 117.214C 71.151 113.057 68.4951 108.784 72.3057 105.32C 75.1926 101.278 79.2341 102.318 83.1603 103.357z"
       id="path1620"
       style="stroke:none; fill:#000000" />
  </g>
</svg>
